<?xml version="1.0" encoding="UTF-8"?>
<svg version="1.1" xmlns="http://www.w3.org/2000/svg" width="800" height="800">
<path d="M0 0 C0.33 0 0.66 0 1 0 C3.59474935 21.45527108 6.00934653 42.92837168 8.30078125 64.41796875 C8.40104551 65.35770412 8.50130978 66.2974395 8.60461235 67.2656517 C9.63024139 76.88197458 10.65170218 86.49872688 11.6653471 96.11632061 C12.05270022 99.78702255 12.44221353 103.45749337 12.83212852 107.12792397 C13.01575456 108.86199159 13.19832617 110.59617122 13.3798008 112.33046532 C13.6305355 114.72636559 13.88470946 117.12187797 14.13964844 119.51733398 C14.21236434 120.22094181 14.28508024 120.92454964 14.35999966 121.64947891 C14.70272846 124.83835541 15.1018987 127.91594765 16 131 C16.42821045 130.30962646 16.8564209 129.61925293 17.29760742 128.90795898 C19.25848759 125.74963113 21.22296171 122.59355361 23.1875 119.4375 C23.86103516 118.35146484 24.53457031 117.26542969 25.22851562 116.14648438 C32.09788168 105.12198958 32.09788168 105.12198958 36 100 C36.33 100 36.66 100 37 100 C36.34 112.54 35.68 125.08 35 138 C43.12167967 129.16099843 43.12167967 129.16099843 51.05859375 120.19140625 C54.18069199 116.66726719 57.39597143 113.22954632 60.59741211 109.77758789 C63.27401038 106.88635872 65.92311179 103.98110596 68.5 101 C72.05683038 96.88795707 75.75583684 92.9123038 79.45043945 88.92456055 C84.01610385 83.99335742 88.51752326 79.00693471 93 74 C98.30843302 68.07942336 103.64872586 62.19099732 109.03662109 56.34277344 C112.29086831 52.80128497 115.46078742 49.19896691 118.5625 45.5234375 C120 44 120 44 123 42 C121.6027689 45.69813356 119.93435305 49.09595998 118.015625 52.55078125 C117.41758057 53.62900146 116.81953613 54.70722168 116.20336914 55.81811523 C115.55250418 56.98305439 114.90137409 58.14784545 114.25 59.3125 C113.91708954 59.90990997 113.58417908 60.50731995 113.24118042 61.12283325 C108.0492007 70.43808766 102.73633951 79.67761458 97.33837891 88.87524414 C92.88199352 96.47076166 88.48812374 104.10064639 84.125 111.75 C83.7968631 112.32519379 83.4687262 112.90038757 83.13064575 113.49301147 C81.79463579 115.83526536 80.45896103 118.17770982 79.12382507 120.52046204 C75.44936088 126.96799902 71.76666817 133.41082807 68.08392334 139.8536377 C66.36817784 142.85539526 64.65285562 145.85739462 62.9375 148.859375 C61.95833333 150.57291667 60.97916667 152.28645833 60 154 C63.69009827 154 66.44315043 152.73901477 69.78515625 151.33984375 C71.13341515 150.78829316 72.48172395 150.23686452 73.83007812 149.68554688 C75.95330036 148.81009038 78.07544411 147.932126 80.1965332 147.05151367 C82.24427875 146.20355795 84.29568228 145.36500406 86.34765625 144.52734375 C86.98413589 144.25969711 87.62061554 143.99205048 88.27638245 143.71629333 C89.82815722 143.08505283 91.4123891 142.53475334 93 142 C93.66 142.33 94.32 142.66 95 143 C94.23816406 143.88300781 93.47632813 144.76601563 92.69140625 145.67578125 C81.8183853 157.93175787 81.8183853 157.93175787 72 171 C80.37831512 169.78310557 88.66114524 168.33440243 96.94067383 166.56982422 C98.05447922 166.33544647 99.16828461 166.10106873 100.31584167 165.85958862 C103.94695384 165.09463625 107.57699149 164.32471133 111.20703125 163.5546875 C113.74429405 163.01915066 116.28162322 162.48392815 118.8190155 161.94900513 C124.78318691 160.69087736 130.74668699 159.42961391 136.70986336 158.16677964 C143.50750424 156.72741582 150.30600525 155.29213526 157.10457575 153.85716987 C171.07066784 150.909271 185.0356912 147.95633422 199 145 C199.33 145.66 199.66 146.32 200 147 C178.16974291 156.82900895 156.33675756 166.65171029 134.48730469 176.43798828 C128.303626 179.20774299 122.12048645 181.9787004 115.9375 184.75 C114.73818848 185.28753906 113.53887695 185.82507813 112.30322266 186.37890625 C102.19766435 190.9093208 92.09719241 195.45097385 82 200 C85.56663427 202.01899781 89.21244502 202.93922783 93.171875 203.9453125 C93.8542926 204.12005096 94.53671021 204.29478943 95.23980713 204.474823 C97.408805 205.02916939 99.57934896 205.57716673 101.75 206.125 C103.22536712 206.50088352 104.70062882 206.87718106 106.17578125 207.25390625 C109.78264567 208.17406908 113.39092358 209.08854669 117 210 C116.67 210.66 116.34 211.32 116 212 C113.67723783 212.74749019 111.41001362 213.37400443 109.04296875 213.9453125 C108.34359695 214.12005096 107.64422516 214.29478943 106.92366028 214.474823 C105.44088021 214.84341938 103.95709261 215.20798224 102.47241211 215.56884766 C100.20497568 216.12074638 97.94126734 216.68623517 95.67773438 217.25390625 C94.2371806 217.61019044 92.79643124 217.96568494 91.35546875 218.3203125 C90.67929001 218.48902863 90.00311127 218.65774475 89.30644226 218.83157349 C86.06150189 219.61442551 83.36900623 220 80 220 C80 220.66 80 221.32 80 222 C80.65154053 222.08886475 81.30308105 222.17772949 81.97436523 222.26928711 C86.03814502 223.2507196 89.6237644 224.94241662 93.41015625 226.69140625 C94.2371553 227.06810455 95.06415436 227.44480286 95.91621399 227.83291626 C97.70068386 228.64631892 99.48409071 229.46205689 101.26654053 230.27987671 C106.0309007 232.46548755 110.80322889 234.63359744 115.57421875 236.8046875 C116.54184143 237.24562241 117.50946411 237.68655731 118.50640869 238.14085388 C127.43946388 242.20890442 136.40097046 246.21081162 145.375 250.1875 C146.82267803 250.82949606 148.27035056 251.4715045 149.71801758 252.11352539 C152.62459677 253.40223603 155.53147715 254.69026494 158.43847656 255.97802734 C165.89550687 259.28229755 173.34770446 262.59745453 180.80059814 265.91104126 C184.66378546 267.62854286 188.52721024 269.3455101 192.390625 271.0625 C193.68261838 271.63671606 194.9746107 272.21093451 196.26660156 272.78515625 C197.16862305 273.18605469 198.07064453 273.58695312 199 274 C199 274.66 199 275.32 199 276 C183.54238099 272.936426 168.10343917 269.79484792 152.68252563 266.55167007 C147.10555734 265.3795829 141.52724805 264.21390021 135.94921875 263.046875 C128.91682595 261.57504191 121.88484106 260.10131843 114.85400391 258.62207031 C109.10096565 257.41183645 103.34679095 256.20714978 97.59179688 255.00625229 C95.40955344 254.54978627 93.22774643 254.0912287 91.04638672 253.63055801 C88.02809446 252.99337934 85.0084113 252.36326389 81.98828125 251.73486328 C81.08672806 251.54275772 80.18517487 251.35065216 79.25630188 251.15272522 C77.17947177 250.72441084 75.09057493 250.35520835 73 250 C72.67 250.33 72.34 250.66 72 251 C72.83402344 251.95519531 73.66804688 252.91039062 74.52734375 253.89453125 C78.03280492 257.9171745 81.52164919 261.95389772 85 266 C85.7420166 266.86214111 85.7420166 266.86214111 86.49902344 267.74169922 C87.77906442 269.23690769 89.04627628 270.74307241 90.3125 272.25 C91.38951172 273.52617188 91.38951172 273.52617188 92.48828125 274.828125 C94 277 94 277 94 280 C82.45 275.38 70.9 270.76 59 266 C70.47934163 286.14191579 70.47934163 286.14191579 82.125 306.1875 C87.54605408 315.43386353 92.80937093 324.76083499 98.02514648 334.12426758 C101.34845033 340.08049539 104.71485782 346.00456444 108.1875 351.875 C108.57429932 352.52984375 108.96109863 353.1846875 109.35961914 353.859375 C111.07076313 356.75181093 112.78622038 359.64160069 114.5078125 362.52783203 C116.07510108 365.16008549 117.63190711 367.798322 119.1875 370.4375 C119.68209717 371.26169434 120.17669434 372.08588867 120.6862793 372.93505859 C121.13398682 373.6977002 121.58169434 374.4603418 122.04296875 375.24609375 C122.44539795 375.92341553 122.84782715 376.6007373 123.26245117 377.29858398 C123.50584229 377.86005127 123.7492334 378.42151855 124 379 C123.67 379.66 123.34 380.32 123 381 C109.00161414 366.09633279 109.00161414 366.09633279 103.76171875 360.01171875 C101.4252886 357.3437331 99.02583749 354.73485446 96.625 352.125 C90.97788501 345.98557735 85.39728451 339.78833884 79.828125 333.578125 C75.74305238 329.02949804 71.63574212 324.50259936 67.5 320 C62.63063313 314.69870037 57.806761 309.35807409 53 304 C51.50028872 302.33307353 50.00028679 300.66640851 48.5 299 C44 294 39.5 289 35 284 C35.99 302.81 35.99 302.81 37 322 C33.75944216 318.75944216 31.74770804 316.27835078 29.3984375 312.46484375 C28.74359375 311.40845703 28.08875 310.35207031 27.4140625 309.26367188 C26.74117187 308.16603516 26.06828125 307.06839844 25.375 305.9375 C24.0288763 303.75897216 22.68253222 301.58058047 21.3359375 299.40234375 C20.74345215 298.43804443 20.1509668 297.47374512 19.54052734 296.48022461 C18.39303382 294.63277823 17.20636766 292.80955149 16 291 C14.57310859 299.07419911 13.4512368 307.13437446 12.57958984 315.28613281 C12.45250137 316.44856003 12.3254129 317.61098724 12.19447327 318.80863953 C11.78006119 322.60645739 11.37045914 326.40477697 10.9609375 330.203125 C10.67263106 332.85401654 10.38405531 335.50487739 10.09512329 338.15570068 C9.41600338 344.3917574 8.74035172 350.62818464 8.06598818 356.8647573 C7.29721654 363.97281459 6.52451412 371.08044289 5.75150371 378.18804026 C4.16333745 392.79155788 2.58003511 407.39560033 1 422 C-0.72361661 418.95599289 -1.36161725 416.44116948 -1.72731018 412.97245789 C-1.83799835 411.95896271 -1.94868652 410.94546753 -2.06272888 409.90126038 C-2.17552689 408.79519943 -2.28832489 407.68913849 -2.40454102 406.54956055 C-2.59276428 404.7952774 -2.59276428 404.7952774 -2.78479004 403.0055542 C-3.12708114 399.80143303 -3.46248562 396.59667951 -3.79493451 393.39152503 C-4.14508618 390.03228479 -4.50425994 386.67401 -4.86253357 383.31562805 C-5.54029833 376.94986291 -6.21035724 370.58331219 -6.87746996 364.21642286 C-7.85533862 354.88703864 -8.84482578 345.55888544 -9.83421993 336.23071766 C-9.98054394 334.85098125 -10.12686337 333.47124435 -10.2731781 332.09150696 C-10.34467117 331.41745514 -10.41616423 330.74340333 -10.48982376 330.0489257 C-10.98128136 325.41251662 -11.46921076 320.77574678 -11.95594788 316.13883972 C-12.15096138 314.28740105 -12.15096138 314.28740105 -12.34991455 312.39855957 C-12.5919058 310.10092302 -12.83293767 307.80318513 -13.07279968 305.50532532 C-13.62022049 300.31901019 -14.21486128 295.15592003 -15 290 C-15.42821045 290.68513672 -15.8564209 291.37027344 -16.29760742 292.07617188 C-26.23046875 307.96875 -26.23046875 307.96875 -28.18505859 311.08984375 C-29.32060861 312.9106342 -30.44963089 314.73553064 -31.56884766 316.56640625 C-32.68788942 318.392953 -33.83966409 320.19940341 -35 322 C-35.33 322 -35.66 322 -36 322 C-35.96970703 321.31075439 -35.93941406 320.62150879 -35.90820312 319.91137695 C-35.08696052 301.96284947 -35.08696052 301.96284947 -35 284 C-35.37769531 284.43828125 -35.75539063 284.8765625 -36.14453125 285.328125 C-40.28708131 290.10127401 -44.52724777 294.7788775 -48.80541992 299.43017578 C-53.24042509 304.25389744 -57.6251992 309.12162501 -62 314 C-66.84521093 319.40293305 -71.71208598 324.78363904 -76.625 330.125 C-79.60218281 333.36217216 -82.55952856 336.61137729 -85.4375 339.9375 C-89.06144644 344.12032011 -92.83255746 348.16271807 -96.59521484 352.22021484 C-99.84172395 355.72734054 -103.02038905 359.28109597 -106.1484375 362.89453125 C-108.62628405 365.71216688 -111.15376809 368.48262905 -113.6875 371.25 C-114.15164307 371.75797119 -114.61578613 372.26594238 -115.09399414 372.78930664 C-117.66729287 375.59253803 -120.28713112 378.33160438 -123 381 C-121.37740421 374.85878301 -118.10237226 369.77778178 -114.875 364.375 C-113.59779136 362.21162603 -112.32179746 360.04753455 -111.046875 357.8828125 C-110.04817383 356.18946777 -110.04817383 356.18946777 -109.02929688 354.46191406 C-105.6751974 348.75495685 -102.40225575 343.001299 -99.125 337.25 C-98.45244124 336.07093578 -97.77983353 334.89189949 -97.10717773 333.71289062 C-95.74982831 331.33329092 -94.39301564 328.9533863 -93.03662109 326.57324219 C-90.00605671 321.25555187 -86.97217984 315.93975435 -83.93673706 310.62484741 C-82.9452146 308.88850967 -81.95417278 307.15189749 -80.96313477 305.4152832 C-77.55854356 299.45503453 -74.13910504 293.50406364 -70.6953125 287.56640625 C-70.34592117 286.96340698 -69.99652985 286.36040771 -69.6365509 285.73913574 C-67.96351855 282.85189695 -66.28781283 279.96632353 -64.60717773 277.08349609 C-64.01622314 276.06465332 -63.42526855 275.04581055 -62.81640625 273.99609375 C-62.29506104 273.10075928 -61.77371582 272.2054248 -61.23657227 271.28295898 C-59.88582098 268.9470882 -59.88582098 268.9470882 -59 266 C-70.22 270.62 -81.44 275.24 -93 280 C-93 275.64762602 -90.32994621 273.58938719 -87.5625 270.5 C-86.46125222 269.24435485 -85.36100276 267.98783349 -84.26171875 266.73046875 C-83.71177246 266.10446777 -83.16182617 265.4784668 -82.59521484 264.83349609 C-80.30387407 262.19989199 -78.0859926 259.51402277 -75.875 256.8125 C-75.17117188 255.95269531 -74.46734375 255.09289062 -73.7421875 254.20703125 C-71.88761795 251.91824892 -71.88761795 251.91824892 -70 249 C-71.28084473 249.30623291 -72.56168945 249.61246582 -73.88134766 249.92797852 C-95.99498045 255.14892871 -118.23394423 259.79672682 -140.46630859 264.47973633 C-146.28036596 265.70494216 -152.09210816 266.94080345 -157.9034481 268.17882442 C-162.40595763 269.13601865 -166.9100814 270.08543371 -171.41469193 271.03268623 C-173.56115317 271.48548149 -175.70699367 271.94122995 -177.8521843 272.40000725 C-180.82605384 273.03527756 -183.80203592 273.65950376 -186.77880859 274.28100586 C-187.65865417 274.47154037 -188.53849976 274.66207489 -189.44500732 274.85838318 C-190.65901718 275.1083606 -190.65901718 275.1083606 -191.89755249 275.36338806 C-192.59753042 275.51137816 -193.29750835 275.65936827 -194.01869774 275.81184292 C-196.24185645 276.02296823 -197.87893368 275.65664637 -200 275 C-181.79866948 266.62940659 -163.57062494 258.32733586 -145.2505188 250.21963501 C-130.3685284 243.63193708 -115.53860026 236.93146285 -100.71850586 230.20581055 C-99.85541809 229.81437866 -98.99233032 229.42294678 -98.10308838 229.01965332 C-96.49425373 228.28987671 -94.88571013 227.55945796 -93.27752686 226.82824707 C-88.87381672 224.83048367 -84.45145179 222.88910618 -80 221 C-81.05501709 220.73783691 -82.11003418 220.47567383 -83.19702148 220.20556641 C-87.09967002 219.23350351 -90.99955399 218.25073079 -94.89868164 217.26464844 C-96.58869797 216.83885338 -98.27945611 216.41599172 -99.97094727 215.99609375 C-102.3979942 215.39306539 -104.8222037 214.77964013 -107.24609375 214.1640625 C-108.00651474 213.97752106 -108.76693573 213.79097961 -109.55039978 213.5987854 C-111.38393138 213.12765033 -113.19521094 212.57143926 -115 212 C-115.33 211.34 -115.66 210.68 -116 210 C-104.45 207.03 -92.9 204.06 -81 201 C-84.8236276 198.1322793 -88.54966063 196.24594668 -92.875 194.33203125 C-93.65884064 193.98044952 -94.44268127 193.6288678 -95.25027466 193.26663208 C-97.8313805 192.11041069 -100.41563621 190.96141857 -103 189.8125 C-104.81382073 189.0017892 -106.62745767 188.1906671 -108.44091797 187.37915039 C-113.95754695 184.91253065 -119.47844909 182.45557752 -125 180 C-126.59930958 179.28814373 -128.19859464 178.57623237 -129.79785156 177.86425781 C-135.68905501 175.24210073 -141.58117371 172.62201692 -147.47558594 170.00708008 C-159.07694698 164.8601078 -170.66568937 159.68522684 -182.25 154.5 C-183.09870667 154.12011932 -183.94741333 153.74023865 -184.82183838 153.34884644 C-189.54816742 151.23317842 -194.27421138 149.11687485 -199 147 C-199 146.67 -199 146.34 -199 146 C-191.67830161 146.56417243 -184.63651313 147.76940417 -177.46337891 149.31665039 C-176.35643677 149.55088211 -175.24949463 149.78511383 -174.10900879 150.02644348 C-171.72304195 150.53205939 -169.33759478 151.04013264 -166.95262527 151.55043221 C-163.17959053 152.35770632 -159.40522412 153.15846794 -155.63046265 153.95762634 C-148.30736086 155.50921345 -140.98579059 157.067924 -133.66448975 158.62798309 C-123.69043906 160.75297228 -113.71537006 162.87309695 -103.73887253 164.98657036 C-100.01776541 165.77641054 -96.29775924 166.57129408 -92.57778931 167.36647034 C-90.30532439 167.84878254 -88.032815 168.33088529 -85.76025391 168.81274414 C-84.20641495 169.14701416 -84.20641495 169.14701416 -82.6211853 169.48803711 C-81.67092468 169.68853165 -80.72066406 169.88902618 -79.74160767 170.09559631 C-78.91760782 170.27128175 -78.09360798 170.44696718 -77.24463844 170.62797642 C-74.72151518 171.10900549 -74.72151518 171.10900549 -71 171 C-71.76183594 170.11699219 -72.52367187 169.23398437 -73.30859375 168.32421875 C-78.28808332 162.54205553 -83.25311 156.7482899 -88.125 150.875 C-88.82882812 150.02679688 -89.53265625 149.17859375 -90.2578125 148.3046875 C-91.81495619 146.2447889 -92.8887803 144.31438142 -94 142 C-86.13674867 144.48536423 -78.55960875 147.54707773 -70.9375 150.6875 C-69.67784451 151.20404471 -68.41807962 151.7203227 -67.15820312 152.23632812 C-64.1043863 153.48827602 -61.05169618 154.74289384 -58 156 C-60.37298008 151.83218069 -62.74816688 147.66562299 -65.125 143.5 C-65.48591736 142.86742279 -65.84683472 142.23484558 -66.21868896 141.58309937 C-71.13871515 132.963882 -76.10348087 124.37311788 -81.125 115.8125 C-86.44705493 106.73378913 -91.6163543 97.57789798 -96.73510742 88.38330078 C-101.95288634 79.03279462 -107.32825432 69.77866142 -112.74609375 60.54296875 C-113.26929199 59.64755371 -113.79249023 58.75213867 -114.33154297 57.82958984 C-115.54022403 55.77974883 -116.76536562 53.73958462 -118.00048828 51.70556641 C-118.97671143 50.08207275 -118.97671143 50.08207275 -119.97265625 48.42578125 C-120.574729 47.43618408 -121.17680176 46.44658691 -121.79711914 45.42700195 C-122.19406982 44.62609131 -122.59102051 43.82518066 -123 43 C-122.505 42.01 -122.505 42.01 -122 41 C-117.82890325 45.0569938 -113.8800837 49.22604285 -110.08203125 53.6328125 C-107.43954273 56.63721784 -104.72180266 59.56753928 -102 62.5 C-98.78825847 65.96272791 -95.58896567 69.42649069 -92.5 73 C-88.94316962 77.11204293 -85.24416316 81.0876962 -81.54956055 85.07543945 C-76.98389615 90.00664258 -72.48247674 94.99306529 -68 100 C-63.15528817 105.4033813 -58.28772822 110.78347586 -53.375 116.125 C-49.78147695 120.03476296 -46.224141 123.97046702 -42.74755859 127.98486328 C-40.93651396 130.07320673 -39.11775418 132.15460304 -37.296875 134.234375 C-36.67651367 134.94303711 -36.05615234 135.65169922 -35.41699219 136.38183594 C-34.94938477 136.91583008 -34.48177734 137.44982422 -34 138 C-34.06058594 137.13310547 -34.12117187 136.26621094 -34.18359375 135.37304688 C-34.40942141 132.12286572 -34.6327669 128.87253293 -34.85449219 125.62207031 C-34.95051991 124.22161232 -35.04750506 122.82121961 -35.14550781 121.42089844 C-36.14642567 107.101645 -36.14642567 107.101645 -36 100 C-31.70488408 103.7492139 -29.0252522 108.44893589 -26.0625 113.25 C-25.55009766 114.07113281 -25.03769531 114.89226562 -24.50976562 115.73828125 C-23.49525748 117.36510371 -22.48300148 118.99333309 -21.47314453 120.62304688 C-19.32548995 124.08833772 -17.16215273 127.54374112 -15 131 C-12.43092406 109.62806559 -10.01140399 88.24096813 -7.69921875 66.83984375 C-7.59895449 65.91222166 -7.49869022 64.98459957 -7.39538765 64.02886772 C-6.37061313 54.54452143 -5.34947592 45.0597925 -4.3346529 35.57437611 C-3.94697686 31.95435198 -3.55757748 28.33451442 -3.16787148 24.71470833 C-2.98445242 23.00659318 -2.80188158 21.29838672 -2.6201992 19.59008598 C-2.36896333 17.22796415 -2.1149583 14.86615505 -1.86035156 12.50439453 C-1.75127771 11.46840134 -1.75127771 11.46840134 -1.64000034 10.411479 C-1.25797372 6.89545426 -0.75909557 3.45496985 0 0 Z " fill="#E6EAF0" transform="translate(377,180)"/>
<path d="M0 0 C0.33 0 0.66 0 1 0 C1.71579219 6.60157181 2.42744339 13.20358063 3.13623047 19.8059082 C3.37779155 22.05145352 3.62029708 24.29689745 3.86376953 26.54223633 C4.21375461 29.77138437 4.56033113 33.00088291 4.90625 36.23046875 C5.0156189 37.23272995 5.12498779 38.23499115 5.2376709 39.2676239 C5.33777466 40.20822159 5.43787842 41.14881927 5.54101562 42.11791992 C5.62984009 42.94176682 5.71866455 43.76561371 5.81018066 44.61442566 C6.00687643 47.08642028 6.03239657 49.52126581 6 52 C6.66 52 7.32 52 8 52 C9.07525194 49.34771188 10.09456151 46.71631546 11 44 C11.66 44 12.32 44 13 44 C13.33 43.01 13.66 42.02 14 41 C14.33 41 14.66 41 15 41 C15 45.29 15 49.58 15 54 C20.24866746 48.84341442 25.22562167 43.59440514 30 38 C30.9528998 36.88782785 31.9060453 35.77586617 32.859375 34.6640625 C34.43033392 32.83160602 36.00096326 30.9988744 37.5703125 29.16503906 C41.34990742 24.74991581 45.15554468 20.35885427 49 16 C49.33 16.66 49.66 17.32 50 18 C48.9080836 20.08225918 47.75741861 22.0187103 46.5 24 C45.67467311 25.3370569 44.85197093 26.6757359 44.03125 28.015625 C43.32548828 29.16708008 43.32548828 29.16708008 42.60546875 30.34179688 C39.68125597 35.18346791 36.8519476 40.08040893 34.02368164 44.97851562 C33.0073784 46.73723165 31.98714419 48.49362799 30.96679688 50.25 C30.33837891 51.33796875 29.70996094 52.4259375 29.0625 53.546875 C28.49660156 54.52495117 27.93070312 55.50302734 27.34765625 56.51074219 C25.8982647 59.01591635 25.8982647 59.01591635 25 62 C25.84304688 61.62746094 26.68609375 61.25492187 27.5546875 60.87109375 C28.65039062 60.39800781 29.74609375 59.92492187 30.875 59.4375 C31.96554687 58.96183594 33.05609375 58.48617187 34.1796875 57.99609375 C35.11039062 57.66738281 36.04109375 57.33867187 37 57 C37.66 57.33 38.32 57.66 39 58 C37.515 58.495 37.515 58.495 36 59 C35.29605388 60.31403276 34.63654342 61.6520257 34 63 C32.68463426 64.68088326 31.35290581 66.34918159 30 68 C34.10494699 67.2542319 38.20890982 66.50319751 42.3125 65.75 C44.14458008 65.41427979 44.14458008 65.41427979 46.01367188 65.07177734 C54.16180379 63.56456521 62.27560645 61.95063651 70.34887695 60.08105469 C75.67891597 58.89297199 75.67891597 58.89297199 79 60 C78.47826202 60.23359222 77.95652405 60.46718445 77.41897583 60.70785522 C71.99868838 63.13569615 66.58128522 65.56988474 61.16552734 68.0078125 C59.14282626 68.91732961 57.11939057 69.82521483 55.09521484 70.73144531 C52.18914126 72.0328423 49.28574305 73.34004741 46.3828125 74.6484375 C45.02024826 75.25635635 45.02024826 75.25635635 43.63015747 75.8765564 C42.78943695 76.25679962 41.94871643 76.63704285 41.08251953 77.02880859 C40.34083527 77.36190033 39.599151 77.69499207 38.83499146 78.03817749 C36.82663685 78.97468634 36.82663685 78.97468634 35 81 C38.96 81.99 42.92 82.98 47 84 C44.8553857 86.1446143 43.98260002 86.44564603 41.125 87.125 C40.44695312 87.29257812 39.76890625 87.46015625 39.0703125 87.6328125 C37 88 37 88 33 88 C33 88.66 33 89.32 33 90 C34.71123047 90.50853516 34.71123047 90.50853516 36.45703125 91.02734375 C44.11846802 93.58115601 51.37008111 97.17227943 58.6875 100.5625 C60.91817083 101.5939166 63.14946752 102.62388608 65.38252258 103.65013123 C66.76302841 104.28473908 68.14217904 104.9223066 69.5196991 105.56336975 C73.28469567 107.29606293 77.04329269 108.76655725 81 110 C76.94103805 111.60415637 73.23265199 110.4076485 69.15625 109.453125 C68.39131226 109.28125671 67.62637451 109.10938843 66.83825684 108.93231201 C64.39017705 108.37994744 61.94518726 107.81501567 59.5 107.25 C57.88559646 106.88462135 56.27101452 106.52003001 54.65625 106.15625 C46.07537632 104.21417975 37.52585529 102.17271796 29 100 C31.97 103.63 34.94 107.26 38 111 C36 112 36 112 33.3984375 111.22265625 C32.40070313 110.83980469 31.40296875 110.45695312 30.375 110.0625 C29.37210937 109.68222656 28.36921875 109.30195313 27.3359375 108.91015625 C26.56507813 108.60980469 25.79421875 108.30945313 25 108 C27.3079913 112.18999726 29.62146872 116.37694312 31.9375 120.5625 C32.2778125 121.17825897 32.618125 121.79401794 32.96875 122.42843628 C37.34982167 130.34851462 41.77307616 138.22922627 46.64819336 145.85961914 C47.48936969 147.2056235 48.25486675 148.59854298 49 150 C48.67 150.66 48.34 151.32 48 152 C39.49150796 142.58470722 39.49150796 142.58470722 35.6875 138.1875 C32.00358641 133.95143074 28.18226591 129.84482747 24.3503418 125.74291992 C21.10729655 122.2564461 18.01903124 118.68255459 15 115 C15 119.62 15 124.24 15 129 C11.62173574 125.62173574 9.45805023 122.05246119 7 118 C5.15935922 128.8939675 3.99687219 139.82621022 2.875 150.8125 C2.69170069 152.58401487 2.50810893 154.3554995 2.32421875 156.12695312 C1.87944661 160.41762831 1.43861182 164.70869089 1 169 C0.67 169 0.34 169 0 169 C-0.19535211 167.37630685 -0.39065319 165.75260756 -0.5859375 164.12890625 C-0.71121826 163.08742432 -0.83649902 162.04594238 -0.96557617 160.97290039 C-1.23999857 158.68702889 -1.51359009 156.40105749 -1.78637695 154.11499023 C-2.39171545 149.04353521 -2.99886198 143.97274567 -3.64453125 138.90625 C-4.5689143 131.56716033 -5.23535657 124.41373182 -5 117 C-5.66 117 -6.32 117 -7 117 C-7.17015625 117.87398437 -7.17015625 117.87398437 -7.34375 118.765625 C-8.0540954 121.18418195 -9.01280229 122.72671939 -10.5 124.75 C-10.9434375 125.36359375 -11.386875 125.9771875 -11.84375 126.609375 C-12.41609375 127.29773438 -12.41609375 127.29773438 -13 128 C-13.33 128 -13.66 128 -14 128 C-14 123.71 -14 119.42 -14 115 C-18.5288982 119.44944385 -22.89128943 123.93168883 -27.02734375 128.74609375 C-28.96557416 130.96066592 -30.95295052 133.12401367 -32.95458984 135.28125 C-38.56310936 141.32742298 -43.85679059 147.54876449 -49 154 C-49 150.30581799 -47.71820705 148.22163822 -46 145 C-45.34 145 -44.68 145 -44 145 C-43.34 142.69 -42.68 140.38 -42 138 C-41.34 138 -40.68 138 -40 138 C-39.73719238 137.29786377 -39.47438477 136.59572754 -39.20361328 135.87231445 C-37.91060373 132.78666387 -36.38586908 129.95676792 -34.7421875 127.04296875 C-34.11699219 125.93115234 -33.49179687 124.81933594 -32.84765625 123.67382812 C-32.1901709 122.51168099 -31.53261797 121.34957209 -30.875 120.1875 C-30.20935359 119.00601811 -29.54398616 117.824379 -28.87890625 116.64257812 C-27.25534066 113.76016095 -25.62894985 110.87937669 -24 108 C-25.15628906 108.45052734 -25.15628906 108.45052734 -26.3359375 108.91015625 C-27.33882813 109.29042969 -28.34171875 109.67070312 -29.375 110.0625 C-30.37273437 110.44535156 -31.37046875 110.82820313 -32.3984375 111.22265625 C-35 112 -35 112 -37 111 C-33.04 106.05 -33.04 106.05 -29 101 C-30.43835205 101.3081665 -31.8767041 101.61633301 -33.35864258 101.93383789 C-38.68511338 103.07288644 -44.01371032 104.20169649 -49.34301758 105.32739258 C-51.65123027 105.81645235 -53.95885335 106.30830344 -56.26586914 106.80297852 C-59.5780857 107.51268836 -62.89227866 108.21240052 -66.20703125 108.91015625 C-67.2414888 109.13405533 -68.27594635 109.35795441 -69.3417511 109.58863831 C-70.3025206 109.78892136 -71.2632901 109.98920441 -72.25317383 110.19555664 C-73.09922684 110.37542618 -73.94527985 110.55529572 -74.81697083 110.74061584 C-77 111 -77 111 -80 110 C-64.34449767 102.97480643 -48.6883628 95.95160386 -33 89 C-37.62 87.68 -42.24 86.36 -47 85 C-43.81928996 83.40964498 -41.12342347 82.35151732 -37.75 81.375 C-36.85796875 81.11460937 -35.9659375 80.85421875 -35.046875 80.5859375 C-34.37140625 80.39257812 -33.6959375 80.19921875 -33 80 C-37.9985101 77.7756802 -42.99729826 75.55198687 -47.99633789 73.32885742 C-49.69465548 72.57349307 -51.3928988 71.81796171 -53.09106445 71.06225586 C-55.54098006 69.97204701 -57.99116779 68.88245176 -60.44140625 67.79296875 C-61.19273331 67.45847214 -61.94406036 67.12397552 -62.71815491 66.77934265 C-63.43837326 66.45923721 -64.15859161 66.13913177 -64.90063477 65.80932617 C-65.58835968 65.50312347 -66.27608459 65.19692078 -66.98464966 64.88143921 C-68.94908915 64.02226651 -70.92763391 63.20489017 -72.90991211 62.38793945 C-76 61 -76 61 -78 59 C-72.00740043 59.58496812 -66.2523075 60.47028339 -60.38671875 61.8125 C-59.60988235 61.98628174 -58.83304596 62.16006348 -58.03266907 62.33911133 C-55.58324004 62.88823368 -53.13538653 63.4440467 -50.6875 64 C-49.0280918 64.37282787 -47.36858727 64.74522726 -45.70898438 65.1171875 C-32.95902395 67.98146923 -32.95902395 67.98146923 -29 69 C-29.49371094 68.37351562 -29.98742187 67.74703125 -30.49609375 67.1015625 C-31.13675781 66.28429687 -31.77742188 65.46703125 -32.4375 64.625 C-33.07558594 63.81289063 -33.71367187 63.00078125 -34.37109375 62.1640625 C-36 60 -36 60 -37 58 C-33.76765013 58.50505467 -30.85671146 59.37955597 -27.8125 60.54296875 C-26.73935547 60.95131958 -26.73935547 60.95131958 -25.64453125 61.36791992 C-25.10183594 61.57650635 -24.55914062 61.78509277 -24 62 C-25.37114344 59.49782119 -26.74621877 56.99797142 -28.125 54.5 C-28.5578833 53.71496094 -28.9907666 52.92992187 -29.43676758 52.12109375 C-32.16044721 47.21496332 -34.95426206 42.3580318 -37.81640625 37.53125 C-38.45755371 36.44779297 -39.09870117 35.36433594 -39.75927734 34.24804688 C-41.03790691 32.09422467 -42.32332816 29.94441898 -43.61572266 27.79882812 C-44.20015137 26.81333984 -44.78458008 25.82785156 -45.38671875 24.8125 C-45.91483154 23.93207031 -46.44294434 23.05164063 -46.98706055 22.14453125 C-47.32133057 21.43683594 -47.65560059 20.72914063 -48 20 C-47.67 19.34 -47.34 18.68 -47 18 C-36.37628074 29.52663934 -36.37628074 29.52663934 -32.5 34 C-29.51051119 37.44441102 -26.45313517 40.82245476 -23.375 44.1875 C-22.91931641 44.68701172 -22.46363281 45.18652344 -21.99414062 45.70117188 C-19.07270146 48.88549816 -16.07406541 51.96477657 -13 55 C-13.33 54.01 -13.66 53.02 -14 52 C-14.0685495 50.10529184 -14.08480372 48.2083166 -14.0625 46.3125 C-14.05347656 45.31863281 -14.04445313 44.32476562 -14.03515625 43.30078125 C-14.02355469 42.54152344 -14.01195312 41.78226562 -14 41 C-11.64270057 43.19138979 -9.97942902 45.43931973 -8.3125 48.1875 C-7.87550781 48.90292969 -7.43851562 49.61835938 -6.98828125 50.35546875 C-6.66214844 50.89816406 -6.33601563 51.44085938 -6 52 C-5.44541764 47.25386953 -4.89423011 42.50736038 -4.34594727 37.76049805 C-4.15966535 36.15167049 -3.97251689 34.54294299 -3.78442383 32.93432617 C-2.75907073 24.16003793 -1.79884254 15.41043313 -1.24389648 6.59057617 C-1.02709761 4.28782057 -0.63597162 2.21851329 0 0 Z " fill="#030303" transform="translate(377,306)"/>
<path d="M0 0 C0.33 0.66 0.66 1.32 1 2 C-2.53133515 9.32425068 -2.53133515 9.32425068 -7 11 C-8.35113205 11.97581759 -9.68946944 12.97029741 -11 14 C-9.61263874 10.84375314 -7.99607292 8.80136567 -5.5 6.4375 C-3.27903267 4.32475777 -1.72257583 2.58386374 0 0 Z " fill="#343536" transform="translate(426,322)"/>
<path d="M0 0 C0.33 0 0.66 0 1 0 C1.33 4.29 1.66 8.58 2 13 C1.01 12.67 0.02 12.34 -1 12 C-1.08159574 7.83861737 -0.98248524 4.0527516 0 0 Z " fill="#9C9EA2" transform="translate(377,180)"/>
<path d="M0 0 C0 0.33 0 0.66 0 1 C-1.41377782 1.36552803 -2.83120576 1.71695495 -4.25 2.0625 C-5.03890625 2.25972656 -5.8278125 2.45695312 -6.640625 2.66015625 C-9.10394822 3.01497267 -10.65604132 2.76877544 -13 2 C-8.22169095 -0.91360308 -5.44893869 -1.19876651 0 0 Z " fill="#888A8E" transform="translate(190,453)"/>
<path d="M0 0 C0.33 0.66 0.66 1.32 1 2 C-1.64960955 5.63094642 -4.01824456 7.89851796 -8 10 C-6.34908222 5.70761377 -3.26245434 3.1206085 0 0 Z " fill="#A3A6AA" transform="translate(499,222)"/>
<path d="M0 0 C2.97 0.33 5.94 0.66 9 1 C8.01 1.495 8.01 1.495 7 2 C7 2.66 7 3.32 7 4 C4.08482708 2.92598892 2.22189824 2.22189824 0 0 Z " fill="#3C3D3E" transform="translate(299,365)"/>
<path d="M0 0 C0.33 0.66 0.66 1.32 1 2 C-2.3125 3.125 -2.3125 3.125 -6 4 C-6.99 3.34 -7.98 2.68 -9 2 C-6.03 1.34 -3.06 0.68 0 0 Z " fill="#86888B" transform="translate(576,325)"/>
<path d="" fill="#3C3D3E" transform="translate(0,0)"/>
<path d="" fill="#787A7D" transform="translate(0,0)"/>
<path d="" fill="#3C3D3E" transform="translate(0,0)"/>
<path d="" fill="#3C3D3E" transform="translate(0,0)"/>
</svg>
