<svg xmlns="http://www.w3.org/2000/svg" xmlns:xlink="http://www.w3.org/1999/xlink" width="64" zoomAndPan="magnify" viewBox="0 0 48 48" height="64" preserveAspectRatio="xMidYMid meet" version="1.2"><g id="9f2e6adf1a"><path style=" stroke:none;fill-rule:nonzero;fill:#e6eaf0;fill-opacity:1;" d="M 24.242188 0.644531 C 24.277344 0.644531 24.316406 0.644531 24.351562 0.644531 C 24.632812 2.972656 24.894531 5.296875 25.140625 7.625 C 25.152344 7.726562 25.164062 7.832031 25.175781 7.933594 C 25.285156 8.976562 25.398438 10.019531 25.507812 11.0625 C 25.550781 11.460938 25.589844 11.855469 25.632812 12.253906 C 25.652344 12.441406 25.671875 12.628906 25.691406 12.820312 C 25.71875 13.078125 25.746094 13.339844 25.773438 13.597656 C 25.78125 13.671875 25.792969 13.75 25.800781 13.828125 C 25.835938 14.175781 25.878906 14.507812 25.976562 14.84375 C 26.023438 14.765625 26.070312 14.691406 26.117188 14.613281 C 26.328125 14.273438 26.542969 13.929688 26.753906 13.589844 C 26.828125 13.472656 26.902344 13.351562 26.976562 13.230469 C 27.722656 12.039062 27.722656 12.039062 28.144531 11.484375 C 28.179688 11.484375 28.214844 11.484375 28.253906 11.484375 C 28.179688 12.839844 28.109375 14.199219 28.035156 15.601562 C 28.917969 14.640625 28.917969 14.640625 29.777344 13.671875 C 30.113281 13.289062 30.460938 12.917969 30.808594 12.542969 C 31.101562 12.230469 31.386719 11.914062 31.667969 11.589844 C 32.050781 11.144531 32.453125 10.714844 32.851562 10.28125 C 33.347656 9.746094 33.835938 9.207031 34.320312 8.664062 C 34.894531 8.023438 35.476562 7.386719 36.058594 6.75 C 36.410156 6.367188 36.753906 5.976562 37.089844 5.578125 C 37.246094 5.414062 37.246094 5.414062 37.570312 5.195312 C 37.421875 5.597656 37.238281 5.964844 37.03125 6.339844 C 36.96875 6.457031 36.902344 6.574219 36.835938 6.695312 C 36.765625 6.820312 36.695312 6.945312 36.625 7.074219 C 36.589844 7.136719 36.550781 7.203125 36.515625 7.269531 C 35.953125 8.277344 35.375 9.28125 34.792969 10.277344 C 34.308594 11.101562 33.832031 11.925781 33.359375 12.753906 C 33.324219 12.816406 33.289062 12.878906 33.25 12.945312 C 33.105469 13.199219 32.960938 13.453125 32.816406 13.707031 C 32.417969 14.40625 32.019531 15.101562 31.621094 15.800781 C 31.433594 16.125 31.25 16.453125 31.0625 16.777344 C 30.957031 16.964844 30.851562 17.148438 30.746094 17.335938 C 31.144531 17.335938 31.441406 17.199219 31.804688 17.046875 C 31.953125 16.984375 32.097656 16.925781 32.242188 16.867188 C 32.472656 16.773438 32.703125 16.675781 32.933594 16.582031 C 33.15625 16.488281 33.378906 16.398438 33.601562 16.308594 C 33.667969 16.277344 33.738281 16.25 33.808594 16.21875 C 33.976562 16.152344 34.148438 16.09375 34.320312 16.035156 C 34.394531 16.070312 34.464844 16.105469 34.539062 16.140625 C 34.457031 16.238281 34.371094 16.332031 34.289062 16.433594 C 33.109375 17.761719 33.109375 17.761719 32.046875 19.175781 C 32.953125 19.042969 33.851562 18.886719 34.75 18.695312 C 34.867188 18.671875 34.988281 18.644531 35.113281 18.621094 C 35.507812 18.535156 35.902344 18.453125 36.292969 18.371094 C 36.570312 18.3125 36.84375 18.253906 37.117188 18.195312 C 37.765625 18.058594 38.410156 17.921875 39.058594 17.785156 C 39.792969 17.628906 40.53125 17.472656 41.269531 17.320312 C 42.78125 17 44.292969 16.679688 45.808594 16.359375 C 45.84375 16.429688 45.878906 16.503906 45.917969 16.574219 C 43.550781 17.640625 41.183594 18.707031 38.816406 19.765625 C 38.148438 20.066406 37.476562 20.367188 36.808594 20.667969 C 36.675781 20.726562 36.546875 20.78125 36.414062 20.84375 C 35.316406 21.335938 34.222656 21.828125 33.128906 22.320312 C 33.515625 22.539062 33.910156 22.636719 34.339844 22.746094 C 34.414062 22.765625 34.488281 22.785156 34.5625 22.804688 C 34.800781 22.863281 35.035156 22.921875 35.269531 22.984375 C 35.429688 23.023438 35.589844 23.0625 35.75 23.105469 C 36.140625 23.203125 36.53125 23.304688 36.921875 23.402344 C 36.886719 23.472656 36.851562 23.546875 36.8125 23.621094 C 36.5625 23.699219 36.316406 23.769531 36.058594 23.832031 C 35.984375 23.847656 35.90625 23.867188 35.828125 23.886719 C 35.667969 23.925781 35.507812 23.96875 35.347656 24.007812 C 35.101562 24.066406 34.855469 24.128906 34.613281 24.1875 C 34.457031 24.226562 34.300781 24.265625 34.144531 24.304688 C 34.070312 24.324219 33.996094 24.339844 33.921875 24.359375 C 33.570312 24.445312 33.277344 24.488281 32.914062 24.488281 C 32.914062 24.558594 32.914062 24.628906 32.914062 24.703125 C 32.984375 24.714844 33.054688 24.722656 33.125 24.734375 C 33.566406 24.839844 33.957031 25.023438 34.367188 25.210938 C 34.457031 25.253906 34.542969 25.292969 34.636719 25.335938 C 34.832031 25.421875 35.023438 25.511719 35.21875 25.601562 C 35.734375 25.835938 36.25 26.074219 36.765625 26.308594 C 36.871094 26.355469 36.976562 26.402344 37.085938 26.453125 C 38.054688 26.894531 39.023438 27.328125 39.996094 27.757812 C 40.152344 27.828125 40.3125 27.898438 40.46875 27.964844 C 40.78125 28.105469 41.097656 28.246094 41.414062 28.386719 C 42.21875 28.742188 43.027344 29.101562 43.835938 29.460938 C 44.253906 29.648438 44.671875 29.832031 45.09375 30.019531 C 45.230469 30.082031 45.371094 30.144531 45.511719 30.207031 C 45.609375 30.25 45.707031 30.292969 45.808594 30.339844 C 45.808594 30.410156 45.808594 30.480469 45.808594 30.554688 C 44.132812 30.222656 42.460938 29.882812 40.789062 29.53125 C 40.183594 29.402344 39.578125 29.277344 38.976562 29.152344 C 38.214844 28.992188 37.453125 28.832031 36.691406 28.671875 C 36.066406 28.539062 35.441406 28.410156 34.820312 28.28125 C 34.582031 28.230469 34.347656 28.179688 34.109375 28.132812 C 33.78125 28.0625 33.457031 27.992188 33.128906 27.925781 C 33.03125 27.90625 32.933594 27.882812 32.832031 27.863281 C 32.605469 27.816406 32.378906 27.777344 32.152344 27.738281 C 32.117188 27.773438 32.082031 27.808594 32.046875 27.847656 C 32.136719 27.949219 32.226562 28.054688 32.320312 28.160156 C 32.699219 28.59375 33.078125 29.03125 33.453125 29.472656 C 33.535156 29.566406 33.535156 29.566406 33.617188 29.660156 C 33.753906 29.820312 33.894531 29.984375 34.03125 30.148438 C 34.148438 30.285156 34.148438 30.285156 34.265625 30.429688 C 34.429688 30.664062 34.429688 30.664062 34.429688 30.988281 C 33.179688 30.488281 31.925781 29.988281 30.636719 29.472656 C 31.878906 31.652344 31.878906 31.652344 33.144531 33.828125 C 33.730469 34.828125 34.300781 35.839844 34.867188 36.855469 C 35.226562 37.5 35.589844 38.140625 35.96875 38.777344 C 36.007812 38.847656 36.050781 38.917969 36.09375 38.992188 C 36.28125 39.304688 36.464844 39.617188 36.652344 39.933594 C 36.820312 40.21875 36.992188 40.503906 37.160156 40.789062 C 37.210938 40.878906 37.265625 40.96875 37.320312 41.058594 C 37.371094 41.140625 37.417969 41.226562 37.46875 41.308594 C 37.511719 41.382812 37.554688 41.457031 37.601562 41.53125 C 37.628906 41.59375 37.652344 41.652344 37.679688 41.71875 C 37.644531 41.789062 37.609375 41.859375 37.570312 41.933594 C 36.054688 40.320312 36.054688 40.320312 35.488281 39.660156 C 35.234375 39.371094 34.972656 39.085938 34.714844 38.804688 C 34.101562 38.140625 33.496094 37.46875 32.894531 36.792969 C 32.449219 36.300781 32.007812 35.8125 31.558594 35.324219 C 31.03125 34.75 30.507812 34.171875 29.988281 33.589844 C 29.824219 33.410156 29.660156 33.226562 29.5 33.046875 C 29.011719 32.503906 28.523438 31.964844 28.035156 31.421875 C 28.144531 33.460938 28.144531 33.460938 28.253906 35.539062 C 27.902344 35.1875 27.683594 34.921875 27.429688 34.507812 C 27.359375 34.390625 27.285156 34.277344 27.214844 34.160156 C 27.140625 34.039062 27.066406 33.921875 26.992188 33.800781 C 26.847656 33.5625 26.699219 33.328125 26.554688 33.089844 C 26.492188 32.988281 26.425781 32.882812 26.359375 32.773438 C 26.234375 32.574219 26.109375 32.375 25.976562 32.179688 C 25.824219 33.054688 25.699219 33.929688 25.605469 34.8125 C 25.59375 34.9375 25.578125 35.0625 25.566406 35.195312 C 25.519531 35.605469 25.476562 36.015625 25.429688 36.429688 C 25.398438 36.714844 25.367188 37.003906 25.335938 37.289062 C 25.261719 37.964844 25.191406 38.640625 25.117188 39.316406 C 25.035156 40.089844 24.949219 40.859375 24.867188 41.628906 C 24.695312 43.210938 24.523438 44.792969 24.351562 46.375 C 24.164062 46.046875 24.09375 45.773438 24.054688 45.398438 C 24.042969 45.289062 24.03125 45.179688 24.019531 45.066406 C 24.007812 44.945312 23.996094 44.824219 23.984375 44.703125 C 23.960938 44.511719 23.960938 44.511719 23.941406 44.316406 C 23.902344 43.972656 23.867188 43.625 23.832031 43.277344 C 23.792969 42.914062 23.753906 42.546875 23.714844 42.183594 C 23.644531 41.496094 23.570312 40.804688 23.496094 40.113281 C 23.390625 39.105469 23.285156 38.09375 23.175781 37.082031 C 23.160156 36.933594 23.144531 36.78125 23.128906 36.632812 C 23.121094 36.558594 23.113281 36.488281 23.105469 36.414062 C 23.054688 35.910156 23 35.40625 22.949219 34.90625 C 22.925781 34.703125 22.925781 34.703125 22.90625 34.5 C 22.878906 34.25 22.851562 34 22.828125 33.753906 C 22.765625 33.191406 22.703125 32.632812 22.617188 32.070312 C 22.570312 32.148438 22.523438 32.222656 22.476562 32.296875 C 21.402344 34.019531 21.402344 34.019531 21.1875 34.359375 C 21.066406 34.554688 20.941406 34.753906 20.820312 34.953125 C 20.699219 35.148438 20.574219 35.34375 20.449219 35.539062 C 20.414062 35.539062 20.378906 35.539062 20.34375 35.539062 C 20.34375 35.464844 20.347656 35.390625 20.351562 35.3125 C 20.441406 33.367188 20.441406 33.367188 20.449219 31.421875 C 20.410156 31.46875 20.367188 31.515625 20.324219 31.566406 C 19.878906 32.082031 19.417969 32.589844 18.953125 33.09375 C 18.472656 33.617188 18 34.144531 17.523438 34.671875 C 17 35.257812 16.472656 35.839844 15.9375 36.421875 C 15.617188 36.769531 15.296875 37.125 14.984375 37.484375 C 14.589844 37.9375 14.183594 38.375 13.773438 38.816406 C 13.421875 39.195312 13.078125 39.578125 12.738281 39.972656 C 12.472656 40.277344 12.199219 40.578125 11.921875 40.878906 C 11.871094 40.933594 11.824219 40.988281 11.769531 41.042969 C 11.492188 41.347656 11.207031 41.644531 10.914062 41.933594 C 11.089844 41.269531 11.445312 40.71875 11.792969 40.132812 C 11.933594 39.898438 12.070312 39.664062 12.210938 39.429688 C 12.316406 39.246094 12.316406 39.246094 12.429688 39.058594 C 12.792969 38.4375 13.144531 37.816406 13.5 37.191406 C 13.574219 37.066406 13.648438 36.9375 13.71875 36.808594 C 13.867188 36.550781 14.015625 36.292969 14.160156 36.035156 C 14.488281 35.460938 14.816406 34.882812 15.148438 34.308594 C 15.253906 34.121094 15.363281 33.929688 15.46875 33.742188 C 15.839844 33.097656 16.207031 32.453125 16.582031 31.808594 C 16.621094 31.742188 16.65625 31.679688 16.695312 31.609375 C 16.878906 31.296875 17.058594 30.984375 17.242188 30.671875 C 17.304688 30.5625 17.371094 30.453125 17.4375 30.339844 C 17.492188 30.242188 17.546875 30.144531 17.605469 30.042969 C 17.753906 29.789062 17.753906 29.789062 17.847656 29.472656 C 16.632812 29.972656 15.417969 30.472656 14.164062 30.988281 C 14.164062 30.515625 14.453125 30.292969 14.753906 29.960938 C 14.875 29.824219 14.992188 29.6875 15.113281 29.550781 C 15.171875 29.484375 15.230469 29.414062 15.292969 29.34375 C 15.539062 29.058594 15.78125 28.769531 16.019531 28.476562 C 16.097656 28.382812 16.171875 28.289062 16.25 28.195312 C 16.453125 27.945312 16.453125 27.945312 16.65625 27.628906 C 16.519531 27.664062 16.378906 27.695312 16.238281 27.730469 C 13.839844 28.296875 11.429688 28.800781 9.019531 29.308594 C 8.390625 29.441406 7.761719 29.574219 7.132812 29.707031 C 6.644531 29.8125 6.15625 29.914062 5.667969 30.015625 C 5.433594 30.066406 5.203125 30.117188 4.96875 30.164062 C 4.648438 30.234375 4.324219 30.300781 4.003906 30.367188 C 3.90625 30.390625 3.8125 30.410156 3.714844 30.429688 C 3.582031 30.457031 3.582031 30.457031 3.449219 30.484375 C 3.371094 30.503906 3.296875 30.519531 3.21875 30.535156 C 2.976562 30.558594 2.800781 30.519531 2.570312 30.445312 C 4.542969 29.539062 6.515625 28.640625 8.503906 27.761719 C 10.117188 27.046875 11.722656 26.320312 13.328125 25.59375 C 13.421875 25.550781 13.515625 25.507812 13.613281 25.464844 C 13.785156 25.386719 13.960938 25.304688 14.136719 25.226562 C 14.613281 25.011719 15.089844 24.800781 15.574219 24.59375 C 15.460938 24.566406 15.34375 24.539062 15.226562 24.507812 C 14.804688 24.402344 14.382812 24.296875 13.960938 24.191406 C 13.777344 24.144531 13.59375 24.097656 13.410156 24.050781 C 13.144531 23.988281 12.882812 23.921875 12.621094 23.855469 C 12.539062 23.832031 12.457031 23.8125 12.371094 23.792969 C 12.171875 23.742188 11.976562 23.679688 11.78125 23.621094 C 11.746094 23.546875 11.710938 23.476562 11.671875 23.402344 C 12.925781 23.082031 14.175781 22.757812 15.464844 22.425781 C 15.050781 22.117188 14.648438 21.914062 14.179688 21.703125 C 14.09375 21.667969 14.007812 21.628906 13.921875 21.589844 C 13.640625 21.464844 13.359375 21.339844 13.082031 21.214844 C 12.882812 21.128906 12.6875 21.039062 12.492188 20.953125 C 11.894531 20.683594 11.296875 20.417969 10.695312 20.152344 C 10.523438 20.074219 10.351562 19.996094 10.175781 19.921875 C 9.539062 19.636719 8.898438 19.351562 8.261719 19.070312 C 7.003906 18.511719 5.75 17.949219 4.492188 17.386719 C 4.402344 17.347656 4.308594 17.304688 4.214844 17.265625 C 3.703125 17.035156 3.191406 16.804688 2.679688 16.574219 C 2.679688 16.539062 2.679688 16.503906 2.679688 16.46875 C 3.472656 16.527344 4.234375 16.660156 5.011719 16.828125 C 5.132812 16.851562 5.25 16.878906 5.375 16.902344 C 5.632812 16.957031 5.890625 17.011719 6.152344 17.070312 C 6.558594 17.15625 6.96875 17.242188 7.378906 17.328125 C 8.171875 17.496094 8.964844 17.667969 9.757812 17.835938 C 10.839844 18.066406 11.921875 18.296875 13 18.523438 C 13.40625 18.609375 13.808594 18.695312 14.210938 18.78125 C 14.457031 18.835938 14.703125 18.886719 14.949219 18.941406 C 15.117188 18.976562 15.117188 18.976562 15.289062 19.011719 C 15.390625 19.035156 15.496094 19.054688 15.601562 19.078125 C 15.691406 19.097656 15.78125 19.117188 15.871094 19.136719 C 16.144531 19.1875 16.144531 19.1875 16.550781 19.175781 C 16.464844 19.082031 16.382812 18.984375 16.296875 18.886719 C 15.757812 18.261719 15.222656 17.632812 14.691406 16.996094 C 14.617188 16.902344 14.539062 16.8125 14.460938 16.71875 C 14.292969 16.492188 14.175781 16.285156 14.054688 16.035156 C 14.910156 16.304688 15.730469 16.636719 16.554688 16.976562 C 16.691406 17.03125 16.828125 17.085938 16.964844 17.144531 C 17.296875 17.277344 17.628906 17.414062 17.957031 17.550781 C 17.699219 17.097656 17.441406 16.648438 17.1875 16.195312 C 17.148438 16.128906 17.105469 16.058594 17.066406 15.988281 C 16.535156 15.054688 15.996094 14.125 15.453125 13.195312 C 14.875 12.210938 14.316406 11.21875 13.761719 10.222656 C 13.195312 9.210938 12.613281 8.207031 12.023438 7.207031 C 11.96875 7.109375 11.910156 7.011719 11.851562 6.914062 C 11.722656 6.691406 11.589844 6.46875 11.457031 6.25 C 11.351562 6.074219 11.351562 6.074219 11.242188 5.894531 C 11.175781 5.785156 11.113281 5.679688 11.042969 5.570312 C 11 5.480469 10.957031 5.394531 10.914062 5.304688 C 10.96875 5.199219 10.96875 5.199219 11.023438 5.089844 C 11.472656 5.527344 11.902344 5.980469 12.3125 6.457031 C 12.601562 6.785156 12.894531 7.101562 13.191406 7.417969 C 13.539062 7.792969 13.882812 8.167969 14.21875 8.554688 C 14.605469 9.003906 15.003906 9.433594 15.40625 9.863281 C 15.902344 10.398438 16.386719 10.941406 16.875 11.484375 C 17.398438 12.066406 17.925781 12.652344 18.457031 13.230469 C 18.847656 13.652344 19.234375 14.078125 19.609375 14.515625 C 19.808594 14.742188 20.003906 14.96875 20.203125 15.191406 C 20.269531 15.269531 20.335938 15.347656 20.40625 15.425781 C 20.457031 15.484375 20.507812 15.539062 20.558594 15.601562 C 20.550781 15.507812 20.546875 15.414062 20.539062 15.316406 C 20.515625 14.964844 20.488281 14.609375 20.464844 14.257812 C 20.457031 14.105469 20.445312 13.957031 20.433594 13.804688 C 20.324219 12.253906 20.324219 12.253906 20.34375 11.484375 C 20.808594 11.890625 21.097656 12.398438 21.417969 12.917969 C 21.472656 13.007812 21.53125 13.097656 21.585938 13.1875 C 21.695312 13.363281 21.804688 13.539062 21.917969 13.71875 C 22.148438 14.09375 22.382812 14.46875 22.617188 14.84375 C 22.894531 12.527344 23.15625 10.207031 23.410156 7.890625 C 23.417969 7.789062 23.429688 7.6875 23.441406 7.585938 C 23.550781 6.554688 23.664062 5.527344 23.773438 4.5 C 23.816406 4.109375 23.859375 3.714844 23.898438 3.324219 C 23.917969 3.140625 23.9375 2.953125 23.960938 2.769531 C 23.984375 2.511719 24.015625 2.257812 24.042969 2 C 24.054688 1.886719 24.054688 1.886719 24.066406 1.773438 C 24.105469 1.394531 24.160156 1.019531 24.242188 0.644531 Z M 24.242188 0.644531 "/><path style=" stroke:none;fill-rule:nonzero;fill:#030303;fill-opacity:1;" d="M 24.242188 14.300781 C 24.277344 14.300781 24.316406 14.300781 24.351562 14.300781 C 24.429688 15.015625 24.507812 15.730469 24.582031 16.445312 C 24.609375 16.691406 24.636719 16.933594 24.660156 17.175781 C 24.699219 17.527344 24.738281 17.875 24.773438 18.226562 C 24.785156 18.335938 24.796875 18.445312 24.8125 18.554688 C 24.820312 18.65625 24.832031 18.757812 24.84375 18.863281 C 24.851562 18.953125 24.863281 19.042969 24.871094 19.132812 C 24.894531 19.402344 24.898438 19.667969 24.894531 19.933594 C 24.964844 19.933594 25.035156 19.933594 25.109375 19.933594 C 25.226562 19.648438 25.335938 19.363281 25.433594 19.066406 C 25.507812 19.066406 25.578125 19.066406 25.652344 19.066406 C 25.6875 18.960938 25.722656 18.855469 25.761719 18.742188 C 25.796875 18.742188 25.832031 18.742188 25.867188 18.742188 C 25.867188 19.207031 25.867188 19.671875 25.867188 20.152344 C 26.4375 19.59375 26.976562 19.023438 27.492188 18.417969 C 27.597656 18.296875 27.699219 18.175781 27.804688 18.054688 C 27.972656 17.859375 28.144531 17.660156 28.3125 17.460938 C 28.722656 16.980469 29.136719 16.507812 29.554688 16.035156 C 29.589844 16.105469 29.625 16.175781 29.660156 16.25 C 29.542969 16.476562 29.417969 16.6875 29.28125 16.902344 C 29.191406 17.046875 29.105469 17.191406 29.015625 17.335938 C 28.9375 17.460938 28.9375 17.460938 28.859375 17.589844 C 28.542969 18.113281 28.238281 18.644531 27.929688 19.175781 C 27.820312 19.363281 27.710938 19.554688 27.597656 19.746094 C 27.53125 19.863281 27.460938 19.980469 27.390625 20.101562 C 27.332031 20.207031 27.269531 20.316406 27.207031 20.425781 C 27.050781 20.695312 27.050781 20.695312 26.953125 21.019531 C 27.042969 20.976562 27.136719 20.9375 27.230469 20.894531 C 27.347656 20.84375 27.464844 20.792969 27.589844 20.742188 C 27.707031 20.691406 27.824219 20.636719 27.945312 20.585938 C 28.046875 20.550781 28.148438 20.511719 28.253906 20.476562 C 28.324219 20.511719 28.394531 20.546875 28.46875 20.585938 C 28.308594 20.640625 28.308594 20.640625 28.144531 20.695312 C 28.066406 20.835938 27.996094 20.980469 27.925781 21.128906 C 27.785156 21.308594 27.640625 21.488281 27.492188 21.667969 C 27.9375 21.589844 28.382812 21.507812 28.828125 21.425781 C 29.027344 21.390625 29.027344 21.390625 29.230469 21.351562 C 30.113281 21.1875 30.992188 21.011719 31.867188 20.8125 C 32.445312 20.683594 32.445312 20.683594 32.804688 20.800781 C 32.746094 20.828125 32.691406 20.851562 32.632812 20.878906 C 32.046875 21.140625 31.457031 21.40625 30.871094 21.667969 C 30.652344 21.769531 30.433594 21.867188 30.214844 21.964844 C 29.898438 22.105469 29.585938 22.246094 29.269531 22.390625 C 29.121094 22.457031 29.121094 22.457031 28.972656 22.523438 C 28.878906 22.5625 28.789062 22.605469 28.695312 22.648438 C 28.613281 22.683594 28.535156 22.71875 28.453125 22.757812 C 28.234375 22.859375 28.234375 22.859375 28.035156 23.078125 C 28.464844 23.183594 28.894531 23.292969 29.335938 23.402344 C 29.105469 23.636719 29.007812 23.667969 28.699219 23.742188 C 28.625 23.757812 28.550781 23.777344 28.476562 23.796875 C 28.253906 23.835938 28.253906 23.835938 27.820312 23.835938 C 27.820312 23.90625 27.820312 23.980469 27.820312 24.054688 C 28.003906 24.109375 28.003906 24.109375 28.195312 24.164062 C 29.023438 24.441406 29.808594 24.832031 30.601562 25.199219 C 30.84375 25.308594 31.085938 25.421875 31.328125 25.53125 C 31.476562 25.601562 31.628906 25.671875 31.777344 25.738281 C 32.183594 25.925781 32.59375 26.085938 33.019531 26.21875 C 32.582031 26.394531 32.179688 26.265625 31.738281 26.160156 C 31.65625 26.140625 31.570312 26.125 31.484375 26.105469 C 31.222656 26.042969 30.957031 25.984375 30.691406 25.921875 C 30.515625 25.882812 30.339844 25.84375 30.164062 25.804688 C 29.234375 25.59375 28.308594 25.371094 27.386719 25.136719 C 27.707031 25.53125 28.03125 25.921875 28.359375 26.328125 C 28.144531 26.4375 28.144531 26.4375 27.863281 26.351562 C 27.753906 26.3125 27.644531 26.269531 27.535156 26.226562 C 27.425781 26.1875 27.316406 26.144531 27.207031 26.101562 C 27.121094 26.070312 27.039062 26.039062 26.953125 26.003906 C 27.203125 26.457031 27.453125 26.910156 27.703125 27.363281 C 27.742188 27.433594 27.777344 27.5 27.816406 27.566406 C 28.289062 28.425781 28.769531 29.28125 29.296875 30.105469 C 29.390625 30.253906 29.472656 30.402344 29.554688 30.554688 C 29.515625 30.625 29.480469 30.699219 29.445312 30.773438 C 28.523438 29.75 28.523438 29.75 28.109375 29.273438 C 27.710938 28.816406 27.296875 28.371094 26.882812 27.925781 C 26.53125 27.546875 26.195312 27.160156 25.867188 26.761719 C 25.867188 27.261719 25.867188 27.761719 25.867188 28.28125 C 25.503906 27.914062 25.269531 27.527344 25 27.085938 C 24.800781 28.269531 24.675781 29.453125 24.554688 30.644531 C 24.535156 30.835938 24.515625 31.027344 24.496094 31.21875 C 24.445312 31.683594 24.398438 32.148438 24.351562 32.613281 C 24.316406 32.613281 24.28125 32.613281 24.242188 32.613281 C 24.222656 32.4375 24.199219 32.261719 24.179688 32.085938 C 24.164062 31.972656 24.152344 31.859375 24.136719 31.746094 C 24.109375 31.496094 24.078125 31.25 24.050781 31 C 23.984375 30.453125 23.917969 29.902344 23.847656 29.351562 C 23.746094 28.558594 23.675781 27.78125 23.703125 26.980469 C 23.628906 26.980469 23.558594 26.980469 23.484375 26.980469 C 23.464844 27.074219 23.464844 27.074219 23.445312 27.171875 C 23.371094 27.433594 23.265625 27.597656 23.105469 27.820312 C 23.058594 27.886719 23.007812 27.953125 22.960938 28.019531 C 22.898438 28.09375 22.898438 28.09375 22.835938 28.171875 C 22.796875 28.171875 22.761719 28.171875 22.726562 28.171875 C 22.726562 27.707031 22.726562 27.242188 22.726562 26.761719 C 22.234375 27.246094 21.761719 27.730469 21.3125 28.25 C 21.105469 28.492188 20.890625 28.726562 20.671875 28.960938 C 20.0625 29.617188 19.492188 30.289062 18.933594 30.988281 C 18.933594 30.589844 19.070312 30.363281 19.257812 30.011719 C 19.328125 30.011719 19.402344 30.011719 19.476562 30.011719 C 19.546875 29.761719 19.617188 29.511719 19.691406 29.253906 C 19.761719 29.253906 19.835938 29.253906 19.910156 29.253906 C 19.9375 29.179688 19.964844 29.101562 19.996094 29.023438 C 20.136719 28.691406 20.300781 28.382812 20.476562 28.066406 C 20.546875 27.945312 20.613281 27.828125 20.683594 27.703125 C 20.753906 27.578125 20.824219 27.449219 20.898438 27.324219 C 20.96875 27.195312 21.042969 27.066406 21.113281 26.941406 C 21.289062 26.628906 21.464844 26.316406 21.640625 26.003906 C 21.515625 26.050781 21.515625 26.050781 21.390625 26.101562 C 21.28125 26.144531 21.171875 26.183594 21.058594 26.226562 C 20.953125 26.269531 20.84375 26.308594 20.730469 26.351562 C 20.449219 26.4375 20.449219 26.4375 20.234375 26.328125 C 20.664062 25.792969 20.664062 25.792969 21.101562 25.246094 C 20.945312 25.277344 20.789062 25.3125 20.628906 25.347656 C 20.050781 25.46875 19.472656 25.59375 18.894531 25.714844 C 18.644531 25.765625 18.394531 25.820312 18.144531 25.875 C 17.785156 25.949219 17.425781 26.027344 17.066406 26.101562 C 16.957031 26.125 16.84375 26.152344 16.730469 26.175781 C 16.625 26.199219 16.519531 26.21875 16.414062 26.242188 C 16.320312 26.261719 16.230469 26.28125 16.136719 26.300781 C 15.898438 26.328125 15.898438 26.328125 15.574219 26.21875 C 17.269531 25.460938 18.96875 24.699219 20.667969 23.945312 C 20.167969 23.800781 19.664062 23.660156 19.148438 23.511719 C 19.496094 23.339844 19.785156 23.222656 20.152344 23.117188 C 20.25 23.089844 20.34375 23.0625 20.445312 23.03125 C 20.519531 23.011719 20.589844 22.992188 20.667969 22.96875 C 20.125 22.726562 19.582031 22.488281 19.042969 22.246094 C 18.859375 22.164062 18.671875 22.082031 18.488281 22 C 18.222656 21.882812 17.957031 21.765625 17.691406 21.648438 C 17.613281 21.609375 17.53125 21.574219 17.445312 21.535156 C 17.367188 21.503906 17.289062 21.46875 17.210938 21.429688 C 17.136719 21.398438 17.0625 21.363281 16.984375 21.332031 C 16.769531 21.238281 16.558594 21.148438 16.34375 21.0625 C 16.007812 20.910156 16.007812 20.910156 15.789062 20.695312 C 16.441406 20.757812 17.0625 20.851562 17.699219 21 C 17.785156 21.015625 17.867188 21.035156 17.953125 21.054688 C 18.21875 21.113281 18.484375 21.175781 18.75 21.234375 C 18.929688 21.277344 19.109375 21.316406 19.289062 21.355469 C 20.671875 21.667969 20.671875 21.667969 21.101562 21.777344 C 21.046875 21.710938 20.992188 21.640625 20.9375 21.570312 C 20.867188 21.484375 20.800781 21.394531 20.726562 21.304688 C 20.660156 21.214844 20.589844 21.128906 20.519531 21.035156 C 20.34375 20.800781 20.34375 20.800781 20.234375 20.585938 C 20.582031 20.640625 20.898438 20.734375 21.230469 20.859375 C 21.34375 20.90625 21.34375 20.90625 21.464844 20.949219 C 21.523438 20.972656 21.582031 20.996094 21.640625 21.019531 C 21.492188 20.746094 21.34375 20.476562 21.195312 20.207031 C 21.148438 20.121094 21.101562 20.035156 21.054688 19.949219 C 20.757812 19.417969 20.457031 18.890625 20.144531 18.367188 C 20.074219 18.25 20.007812 18.132812 19.933594 18.011719 C 19.796875 17.777344 19.65625 17.546875 19.515625 17.3125 C 19.453125 17.207031 19.390625 17.097656 19.324219 16.988281 C 19.265625 16.894531 19.210938 16.796875 19.152344 16.699219 C 19.113281 16.625 19.078125 16.546875 19.042969 16.46875 C 19.078125 16.394531 19.113281 16.324219 19.148438 16.25 C 20.300781 17.5 20.300781 17.5 20.722656 17.984375 C 21.046875 18.359375 21.375 18.722656 21.710938 19.089844 C 21.757812 19.144531 21.808594 19.195312 21.859375 19.253906 C 22.175781 19.597656 22.5 19.929688 22.835938 20.261719 C 22.796875 20.152344 22.761719 20.046875 22.726562 19.933594 C 22.71875 19.730469 22.714844 19.523438 22.71875 19.320312 C 22.71875 19.210938 22.722656 19.101562 22.722656 18.992188 C 22.722656 18.910156 22.722656 18.828125 22.726562 18.742188 C 22.980469 18.980469 23.160156 19.222656 23.34375 19.523438 C 23.390625 19.597656 23.4375 19.675781 23.484375 19.757812 C 23.519531 19.816406 23.554688 19.875 23.59375 19.933594 C 23.652344 19.421875 23.710938 18.90625 23.773438 18.390625 C 23.792969 18.21875 23.8125 18.042969 23.832031 17.867188 C 23.945312 16.917969 24.046875 15.96875 24.109375 15.015625 C 24.132812 14.765625 24.175781 14.539062 24.242188 14.300781 Z M 24.242188 14.300781 "/><path style=" stroke:none;fill-rule:nonzero;fill:#343536;fill-opacity:1;" d="M 29.554688 16.035156 C 29.589844 16.105469 29.625 16.175781 29.660156 16.25 C 29.277344 17.042969 29.277344 17.042969 28.792969 17.226562 C 28.648438 17.332031 28.503906 17.4375 28.359375 17.550781 C 28.511719 17.210938 28.6875 16.988281 28.957031 16.730469 C 29.199219 16.503906 29.367188 16.3125 29.554688 16.035156 Z M 29.554688 16.035156 "/><path style=" stroke:none;fill-rule:nonzero;fill:#9c9ea2;fill-opacity:1;" d="M 24.242188 0.644531 C 24.277344 0.644531 24.316406 0.644531 24.351562 0.644531 C 24.386719 1.109375 24.421875 1.574219 24.460938 2.054688 C 24.351562 2.019531 24.246094 1.984375 24.132812 1.945312 C 24.125 1.496094 24.136719 1.085938 24.242188 0.644531 Z M 24.242188 0.644531 "/><path style=" stroke:none;fill-rule:nonzero;fill:#888a8e;fill-opacity:1;" d="M 3.976562 30.230469 C 3.976562 30.265625 3.976562 30.300781 3.976562 30.339844 C 3.824219 30.378906 3.671875 30.417969 3.519531 30.453125 C 3.433594 30.476562 3.347656 30.496094 3.257812 30.519531 C 2.992188 30.558594 2.824219 30.53125 2.570312 30.445312 C 3.085938 30.132812 3.386719 30.101562 3.976562 30.230469 Z M 3.976562 30.230469 "/><path style=" stroke:none;fill-rule:nonzero;fill:#a3a6aa;fill-opacity:1;" d="M 37.464844 5.195312 C 37.5 5.269531 37.535156 5.339844 37.570312 5.414062 C 37.285156 5.808594 37.027344 6.054688 36.597656 6.28125 C 36.777344 5.816406 37.109375 5.535156 37.464844 5.195312 Z M 37.464844 5.195312 "/><path style=" stroke:none;fill-rule:nonzero;fill:#3c3d3e;fill-opacity:1;" d="M 15.789062 20.695312 C 16.113281 20.730469 16.433594 20.765625 16.765625 20.800781 C 16.660156 20.855469 16.660156 20.855469 16.550781 20.910156 C 16.550781 20.980469 16.550781 21.054688 16.550781 21.128906 C 16.234375 21.011719 16.03125 20.933594 15.789062 20.695312 Z M 15.789062 20.695312 "/><path style=" stroke:none;fill-rule:nonzero;fill:#86888b;fill-opacity:1;" d="M 45.808594 16.359375 C 45.84375 16.429688 45.878906 16.503906 45.917969 16.574219 C 45.558594 16.699219 45.558594 16.699219 45.15625 16.792969 C 45.050781 16.722656 44.945312 16.648438 44.832031 16.574219 C 45.15625 16.503906 45.476562 16.433594 45.808594 16.359375 Z M 45.808594 16.359375 "/></g></svg>